<?xml version="1.0" encoding="UTF-8" standalone="no"?><!DOCTYPE svg PUBLIC "-//W3C//DTD SVG 1.1//EN" "http://www.w3.org/Graphics/SVG/1.1/DTD/svg11.dtd"><svg width="100%" height="100%" viewBox="0 0 2000 1133" version="1.1" xmlns="http://www.w3.org/2000/svg" xmlns:xlink="http://www.w3.org/1999/xlink" xml:space="preserve" xmlns:serif="http://www.serif.com/" style="fill-rule:evenodd;clip-rule:evenodd;stroke-linejoin:round;stroke-miterlimit:2;"><path d="M1075.531,927.852c0.002,0.004 7.08,148.823 7.382,155.194c0.103,2.185 -1.707,3.417 -3.071,3.483c-28.302,1.375 -56.605,2.739 -84.91,4.063l-768.323,35.26c-3.407,0.145 -5.536,-1.796 -5.907,-2.135c-2.527,-2.304 -2.657,-5.208 -2.679,-5.712l-36.328,-853.485c-0.108,-2.71 0.951,-4.732 1.146,-5.103c0.598,-1.142 0.623,-1.129 1.497,-2.076c0.925,-1.003 0.897,-1.041 2.049,-1.768c0.354,-0.223 2.284,-1.443 4.993,-1.553l725.78,-28.365c-2.684,-76.263 -22.278,-76.769 -5.32,-151.169c0.301,-1.323 1.303,-2.61 1.458,-2.809c0.367,-0.471 2.525,-3.246 6.641,-3.403l853.511,-32.455c0.414,-0.016 2.794,-0.105 4.847,1.808c0.302,0.281 2.034,1.895 2.141,4.688l32.12,853.655c0.009,0.237 0.059,1.568 -0.924,2.818c-0.18,0.229 -1.233,1.568 -3.247,1.644c-151.856,5.728 -732.689,27.437 -732.855,27.421Zm-3.855,-1.846c-0.133,-0.035 -0.269,-0.06 -0.408,-0.073c0.053,-0.235 0.044,-0.482 0.097,-0.717c0.065,-0.288 0.552,-1.187 1.541,-1.402c0.372,-0.081 0.378,-0.047 730.819,-31.809l-36.47,-842.405l-837.771,35.957c2.046,49.497 4.228,98.988 6.275,148.485c0.176,4.255 -2.502,6.705 -2.957,7.122c-2.455,2.246 -5.279,2.367 -5.779,2.388l-724.728,30.251l31.871,835.32l842.132,-29.091l-5.028,-154.098c0.129,0.058 0.267,0.077 0.408,0.073Z" style="fill:#ffd337;"/><g><path d="M464.702,406.074l13.566,0l58.859,140.255l58.914,-140.255l13.566,0l-67.338,159.291l-10.339,0l-67.228,-159.291Zm-4.212,0l11.98,0l1.477,89.765l0,69.526l-13.457,0l0,-159.291Zm141.458,0l11.98,0l0,159.291l-13.457,0l0,-69.526l1.477,-89.765Z" style="fill:#fff;fill-rule:nonzero;"/><path d="M727.16,538.014l0,-91.023l13.183,0l0,118.374l-12.691,0l-0.492,-27.351Zm2.407,-21.935l6.728,-0.219c0,7.439 -0.866,14.304 -2.598,20.595c-1.732,6.291 -4.458,11.761 -8.178,16.41c-3.72,4.65 -8.533,8.26 -14.441,10.831c-5.908,2.571 -13.019,3.856 -21.334,3.856c-5.762,0 -11.031,-0.83 -15.809,-2.489c-4.777,-1.659 -8.889,-4.258 -12.335,-7.795c-3.446,-3.537 -6.099,-8.16 -7.959,-13.867c-1.86,-5.707 -2.79,-12.59 -2.79,-20.65l0,-75.762l13.074,0l0,75.98c0,6.272 0.711,11.533 2.133,15.781c1.422,4.248 3.391,7.64 5.908,10.174c2.516,2.535 5.415,4.349 8.698,5.443c3.282,1.094 6.801,1.641 10.557,1.641c9.627,0 17.231,-1.851 22.811,-5.552c5.58,-3.701 9.564,-8.597 11.952,-14.687c2.389,-6.09 3.583,-12.654 3.583,-19.693Z" style="fill:#fff;fill-rule:nonzero;"/><path d="M787.441,466.574l0,98.791l-13.074,0l0,-118.374l12.8,0l0.274,19.583Zm41.956,-20.404l-0.383,12.034c-1.422,-0.255 -2.826,-0.447 -4.212,-0.574c-1.386,-0.128 -2.899,-0.191 -4.54,-0.191c-5.652,0 -10.621,1.039 -14.906,3.118c-4.285,2.079 -7.877,4.96 -10.776,8.643c-2.899,3.683 -5.115,7.968 -6.646,12.855c-1.532,4.887 -2.407,10.156 -2.626,15.809l-4.814,1.805c0,-7.731 0.802,-14.915 2.407,-21.552c1.605,-6.637 4.057,-12.454 7.357,-17.45c3.3,-4.996 7.485,-8.889 12.554,-11.679c5.069,-2.79 11.05,-4.185 17.942,-4.185c1.641,0 3.282,0.137 4.923,0.41c1.641,0.274 2.881,0.593 3.72,0.957Z" style="fill:#fff;fill-rule:nonzero;"/><path d="M981.303,542.39l0,-145.068l13.128,0l0,168.043l-12.253,0l-0.875,-22.975Zm-82.216,-35.009l0,-2.297c0,-9.19 1.058,-17.486 3.173,-24.889c2.115,-7.403 5.16,-13.739 9.135,-19.009c3.975,-5.27 8.78,-9.317 14.414,-12.144c5.634,-2.826 11.971,-4.239 19.009,-4.239c6.965,0 13.11,1.14 18.434,3.419c5.324,2.279 9.901,5.534 13.73,9.764c3.829,4.23 6.929,9.263 9.299,15.098c2.37,5.835 4.103,12.326 5.197,19.474l0,29.156c-0.875,6.674 -2.48,12.809 -4.814,18.407c-2.334,5.598 -5.434,10.448 -9.299,14.551c-3.866,4.103 -8.515,7.275 -13.949,9.518c-5.434,2.243 -11.706,3.364 -18.817,3.364c-6.965,0 -13.256,-1.468 -18.872,-4.403c-5.616,-2.936 -10.402,-7.084 -14.359,-12.445c-3.957,-5.361 -6.993,-11.715 -9.108,-19.063c-2.115,-7.348 -3.173,-15.435 -3.173,-24.26Zm13.238,-2.297l0,2.297c0,6.892 0.693,13.292 2.079,19.2c1.386,5.908 3.501,11.059 6.345,15.453c2.844,4.394 6.455,7.822 10.831,10.284c4.376,2.462 9.536,3.692 15.481,3.692c7.512,0 13.812,-1.44 18.899,-4.321c5.087,-2.881 9.163,-6.71 12.226,-11.487c3.063,-4.777 5.288,-10.01 6.674,-15.699l0,-33.97c-0.839,-3.829 -2.097,-7.749 -3.774,-11.761c-1.678,-4.011 -3.957,-7.713 -6.838,-11.104c-2.881,-3.391 -6.528,-6.136 -10.94,-8.233c-4.413,-2.097 -9.755,-3.145 -16.028,-3.145c-6.017,0 -11.223,1.249 -15.617,3.747c-4.394,2.498 -8.023,5.953 -10.886,10.366c-2.863,4.413 -4.987,9.573 -6.373,15.481c-1.386,5.908 -2.079,12.308 -2.079,19.2Z" style="fill:#fff;fill-rule:nonzero;"/><path d="M1074.678,567.553c-7.731,0 -14.833,-1.422 -21.306,-4.267c-6.473,-2.844 -12.089,-6.856 -16.848,-12.034c-4.759,-5.178 -8.442,-11.314 -11.05,-18.407c-2.607,-7.093 -3.911,-14.87 -3.911,-23.33l0,-4.704c0,-9.153 1.358,-17.413 4.075,-24.78c2.717,-7.366 6.437,-13.684 11.159,-18.954c4.723,-5.27 10.129,-9.299 16.219,-12.089c6.09,-2.79 12.508,-4.185 19.255,-4.185c7.512,0 14.177,1.34 19.993,4.021c5.817,2.68 10.721,6.437 14.715,11.269c3.993,4.832 7.011,10.557 9.053,17.176c2.042,6.619 3.063,13.885 3.063,21.799l0,7.986l-89.601,0l0,-11.214l76.527,0l0,-1.477c-0.146,-6.601 -1.486,-12.809 -4.021,-18.626c-2.535,-5.817 -6.263,-10.548 -11.186,-14.195c-4.923,-3.647 -11.104,-5.47 -18.544,-5.47c-5.58,0 -10.676,1.176 -15.289,3.528c-4.613,2.352 -8.579,5.689 -11.898,10.01c-3.319,4.321 -5.88,9.454 -7.686,15.398c-1.805,5.944 -2.708,12.545 -2.708,19.802l0,4.704c0,6.491 0.976,12.572 2.927,18.243c1.951,5.671 4.723,10.649 8.315,14.934c3.592,4.285 7.868,7.64 12.828,10.065c4.96,2.425 10.448,3.638 16.465,3.638c6.965,0 13.156,-1.295 18.571,-3.884c5.415,-2.589 10.275,-6.692 14.578,-12.308l8.205,6.345c-2.589,3.793 -5.789,7.284 -9.6,10.475c-3.811,3.191 -8.378,5.744 -13.703,7.658c-5.324,1.915 -11.524,2.872 -18.599,2.872Z" style="fill:#fff;fill-rule:nonzero;"/></g><g><path d="M636.939,637.478l0,19.259l-59.415,0l0,-19.259l59.415,0Zm-44.649,-25.17l27.144,0l0,96.46c0,2.945 0.385,5.202 1.155,6.77c0.771,1.567 1.951,2.644 3.54,3.231c1.59,0.587 3.572,0.881 5.945,0.881c1.701,0 3.215,-0.078 4.54,-0.233c1.325,-0.155 2.481,-0.327 3.468,-0.515l0.031,19.979c-2.277,0.737 -4.775,1.331 -7.496,1.782c-2.719,0.452 -5.714,0.677 -8.983,0.677c-5.976,0 -11.17,-0.997 -15.582,-2.991c-4.411,-1.995 -7.807,-5.19 -10.189,-9.584c-2.382,-4.394 -3.573,-10.176 -3.573,-17.345l0,-99.112Z" style="fill:#fff;fill-rule:nonzero;"/><path d="M699.194,741.339c-7.909,0 -15.004,-1.273 -21.285,-3.82c-6.281,-2.547 -11.608,-6.083 -15.98,-10.609c-4.371,-4.526 -7.709,-9.784 -10.015,-15.773c-2.305,-5.99 -3.458,-12.396 -3.458,-19.218l0,-3.702c0,-7.741 1.098,-14.821 3.293,-21.238c2.195,-6.418 5.355,-11.973 9.479,-16.667c4.124,-4.695 9.134,-8.321 15.028,-10.88c5.894,-2.559 12.531,-3.839 19.908,-3.839c7.246,0 13.663,1.193 19.249,3.578c5.586,2.386 10.278,5.772 14.075,10.158c3.797,4.385 6.672,9.642 8.625,15.769c1.953,6.127 2.929,12.942 2.929,20.446l0,11.272l-81.006,0l0,-18.063l54.374,0l0,-2.087c-0.038,-3.757 -0.731,-7.133 -2.078,-10.129c-1.346,-2.995 -3.364,-5.364 -6.054,-7.107c-2.689,-1.744 -6.124,-2.615 -10.305,-2.615c-3.618,0 -6.719,0.78 -9.304,2.339c-2.585,1.559 -4.678,3.749 -6.278,6.569c-1.6,2.82 -2.783,6.139 -3.549,9.958c-0.766,3.818 -1.149,7.997 -1.149,12.536l0,3.702c0,4.115 0.569,7.899 1.707,11.353c1.138,3.454 2.798,6.431 4.979,8.933c2.182,2.502 4.823,4.451 7.923,5.848c3.1,1.396 6.634,2.094 10.6,2.094c4.923,0 9.499,-0.959 13.729,-2.876c4.23,-1.917 7.884,-4.832 10.961,-8.743l13.174,14.327c-2.115,3.075 -5.007,6.035 -8.677,8.881c-3.669,2.845 -8.087,5.157 -13.254,6.936c-5.167,1.778 -11.048,2.667 -17.642,2.667Zm-19.134,-117.759l18.539,-28.986l29.512,0l-25.961,28.986l-22.089,0Z" style="fill:#fff;fill-rule:nonzero;"/><path d="M783.629,658.635l0,80.819l-27.173,0l0,-101.977l25.528,0l1.645,21.157Zm-3.773,26.222l-7.531,0.037c0.021,-7.102 0.889,-13.654 2.605,-19.655c1.717,-6.001 4.261,-11.222 7.631,-15.663c3.371,-4.441 7.537,-7.882 12.498,-10.322c4.961,-2.441 10.706,-3.661 17.236,-3.661c4.563,0 8.727,0.675 12.492,2.026c3.766,1.351 7.019,3.461 9.759,6.331c2.74,2.869 4.852,6.576 6.337,11.121c1.485,4.545 2.228,10 2.228,16.367l0,68.016l-27.144,0l0,-64.997c0,-4.659 -0.619,-8.251 -1.856,-10.774c-1.237,-2.523 -3,-4.278 -5.288,-5.265c-2.287,-0.988 -5.034,-1.481 -8.241,-1.481c-3.534,0 -6.604,0.72 -9.208,2.159c-2.605,1.438 -4.762,3.43 -6.474,5.974c-1.711,2.545 -2.98,5.502 -3.807,8.873c-0.826,3.37 -1.238,7.008 -1.238,10.914Zm60.768,-3.098l-9.771,1.283c0.02,-6.657 0.861,-12.86 2.524,-18.608c1.663,-5.748 4.143,-10.782 7.44,-15.1c3.297,-4.32 7.395,-7.69 12.294,-10.11c4.899,-2.42 10.563,-3.63 16.991,-3.63c4.914,0 9.374,0.701 13.38,2.104c4.008,1.402 7.44,3.627 10.298,6.675c2.858,3.048 5.062,7.036 6.612,11.962c1.55,4.926 2.325,10.935 2.325,18.025l0,65.095l-27.236,0l0,-65.155c0,-4.697 -0.619,-8.291 -1.857,-10.783c-1.237,-2.492 -2.994,-4.211 -5.272,-5.159c-2.278,-0.947 -4.987,-1.421 -8.129,-1.421c-3.279,0 -6.14,0.639 -8.582,1.916c-2.442,1.276 -4.487,3.04 -6.136,5.291c-1.648,2.251 -2.874,4.874 -3.677,7.87c-0.802,2.995 -1.203,6.243 -1.203,9.744Z" style="fill:#fff;fill-rule:nonzero;"/><path d="M919.351,689.534l0,-2.041c0,-7.436 1.068,-14.311 3.204,-20.626c2.136,-6.315 5.257,-11.802 9.363,-16.461c4.107,-4.66 9.147,-8.294 15.119,-10.902c5.974,-2.608 12.809,-3.911 20.505,-3.911c7.759,0 14.64,1.304 20.645,3.911c6.004,2.608 11.065,6.241 15.181,10.902c4.116,4.659 7.243,10.146 9.379,16.461c2.136,6.315 3.204,13.19 3.204,20.626l0,2.041c0,7.394 -1.068,14.243 -3.204,20.548c-2.136,6.304 -5.263,11.796 -9.379,16.477c-4.116,4.681 -9.156,8.315 -15.119,10.902c-5.963,2.586 -12.803,3.879 -20.518,3.879c-7.717,0 -14.583,-1.293 -20.599,-3.879c-6.015,-2.587 -11.081,-6.221 -15.198,-10.902c-4.116,-4.681 -7.243,-10.173 -9.379,-16.477c-2.136,-6.305 -3.204,-13.154 -3.204,-20.548Zm27.142,-2.041l0,2.041c0,4.237 0.384,8.208 1.152,11.914c0.769,3.705 1.99,6.956 3.664,9.752c1.674,2.795 3.865,4.98 6.572,6.556c2.708,1.575 5.991,2.362 9.85,2.362c3.795,0 7.031,-0.787 9.708,-2.362c2.676,-1.576 4.846,-3.761 6.51,-6.556c1.664,-2.796 2.885,-6.047 3.662,-9.752c0.779,-3.705 1.168,-7.676 1.168,-11.914l0,-2.041c0,-4.132 -0.389,-8.04 -1.168,-11.724c-0.778,-3.684 -2.003,-6.949 -3.677,-9.797c-1.674,-2.849 -3.86,-5.087 -6.558,-6.715c-2.698,-1.628 -5.976,-2.442 -9.834,-2.442c-3.796,0 -7.033,0.814 -9.709,2.442c-2.676,1.628 -4.851,3.866 -6.525,6.715c-1.674,2.848 -2.895,6.114 -3.664,9.797c-0.768,3.684 -1.152,7.591 -1.152,11.724Z" style="fill:#fff;fill-rule:nonzero;"/><path d="M1061.316,637.478l0,101.977l-27.238,0l0,-101.977l27.238,0Zm-28.94,-26.538c0,-3.977 1.385,-7.259 4.156,-9.845c2.771,-2.587 6.471,-3.88 11.099,-3.88c4.607,0 8.307,1.293 11.098,3.88c2.791,2.586 4.187,5.867 4.187,9.845c0,3.937 -1.396,7.193 -4.187,9.769c-2.791,2.576 -6.49,3.864 -11.098,3.864c-4.628,0 -8.328,-1.288 -11.099,-3.864c-2.771,-2.576 -4.156,-5.833 -4.156,-9.769Z" style="fill:#fff;fill-rule:nonzero;"/><path d="M1148.283,637.478l24.646,0l0,98.596c0,9.283 -2.056,17.172 -6.169,23.667c-4.113,6.495 -9.846,11.435 -17.202,14.819c-7.354,3.384 -15.911,5.076 -25.671,5.076c-4.242,0 -8.746,-0.571 -13.511,-1.714c-4.764,-1.142 -9.286,-2.9 -13.564,-5.273c-4.278,-2.373 -7.872,-5.397 -10.781,-9.071l11.952,-15.987c3.123,3.62 6.759,6.445 10.908,8.476c4.149,2.032 8.751,3.048 13.806,3.048c4.891,0 9.039,-0.888 12.442,-2.664c3.404,-1.775 6.019,-4.37 7.845,-7.784c1.826,-3.414 2.739,-7.562 2.739,-12.447l0,-75.16l2.561,-23.581Zm-68.555,52.183l0,-1.979c0,-7.748 0.948,-14.811 2.844,-21.188c1.897,-6.377 4.631,-11.87 8.203,-16.479c3.573,-4.608 7.905,-8.164 12.996,-10.666c5.091,-2.503 10.833,-3.755 17.224,-3.755c6.792,0 12.484,1.264 17.078,3.793c4.595,2.528 8.36,6.094 11.295,10.697c2.935,4.602 5.239,10.027 6.91,16.273c1.671,6.246 2.99,13.075 3.957,20.487l0,4.393c-0.946,7.093 -2.367,13.678 -4.26,19.754c-1.894,6.075 -4.384,11.388 -7.469,15.938c-3.085,4.55 -6.908,8.09 -11.469,10.619c-4.561,2.528 -9.971,3.792 -16.23,3.792c-6.308,0 -11.992,-1.288 -17.052,-3.864c-5.06,-2.576 -9.381,-6.189 -12.964,-10.839c-3.582,-4.65 -6.322,-10.121 -8.219,-16.414c-1.896,-6.294 -2.844,-13.148 -2.844,-20.562Zm27.144,-1.979l0,1.979c0,4.238 0.412,8.183 1.236,11.836c0.824,3.652 2.096,6.866 3.816,9.643c1.721,2.775 3.884,4.94 6.49,6.494c2.606,1.554 5.69,2.331 9.253,2.331c4.972,0 9.023,-1.055 12.154,-3.165c3.132,-2.11 5.483,-5.026 7.054,-8.749c1.571,-3.724 2.495,-7.984 2.771,-12.781l0,-12.369c-0.137,-3.924 -0.669,-7.483 -1.593,-10.677c-0.924,-3.194 -2.246,-5.924 -3.966,-8.192c-1.719,-2.268 -3.925,-4.017 -6.618,-5.248c-2.692,-1.231 -5.896,-1.847 -9.613,-1.847c-3.541,0 -6.63,0.787 -9.267,2.362c-2.636,1.575 -4.815,3.755 -6.536,6.541c-1.72,2.785 -3.013,6.041 -3.88,9.768c-0.866,3.726 -1.299,7.75 -1.299,12.073Z" style="fill:#fff;fill-rule:nonzero;"/><path d="M1220.586,659.249l0,80.205l-27.144,0l0,-101.977l25.499,0l1.645,21.771Zm-3.892,25.608l-7.385,0.037c0.021,-7.527 0.994,-14.323 2.919,-20.389c1.925,-6.066 4.646,-11.256 8.163,-15.569c3.517,-4.313 7.719,-7.615 12.606,-9.906c4.888,-2.291 10.326,-3.437 16.314,-3.437c4.814,0 9.199,0.686 13.156,2.059c3.957,1.372 7.366,3.577 10.224,6.615c2.859,3.039 5.053,7.026 6.581,11.962c1.53,4.936 2.294,11 2.294,18.191l0,65.034l-27.301,0l0,-65.158c0,-4.49 -0.636,-7.99 -1.909,-10.503c-1.272,-2.512 -3.119,-4.283 -5.539,-5.312c-2.42,-1.03 -5.382,-1.545 -8.887,-1.545c-3.611,0 -6.755,0.72 -9.432,2.159c-2.677,1.438 -4.884,3.43 -6.621,5.974c-1.736,2.545 -3.034,5.502 -3.894,8.873c-0.86,3.37 -1.29,7.008 -1.29,10.914Z" style="fill:#fff;fill-rule:nonzero;"/><path d="M1357.299,716.462l0,-45.407c0,-3.255 -0.535,-6.067 -1.605,-8.434c-1.069,-2.367 -2.717,-4.208 -4.942,-5.522c-2.226,-1.315 -5.098,-1.972 -8.618,-1.972c-3.037,0 -5.661,0.52 -7.874,1.56c-2.213,1.04 -3.916,2.508 -5.11,4.406c-1.194,1.897 -1.791,4.152 -1.791,6.767l-27.142,0c0,-4.368 1.017,-8.502 3.05,-12.402c2.034,-3.901 4.954,-7.345 8.759,-10.33c3.806,-2.986 8.377,-5.321 13.713,-7.005c5.336,-1.686 11.295,-2.529 17.878,-2.529c7.882,0 14.901,1.32 21.056,3.961c6.155,2.641 11.009,6.597 14.564,11.868c3.556,5.271 5.334,11.878 5.334,19.822l0,43.605c0,5.607 0.351,10.189 1.054,13.746c0.704,3.556 1.717,6.652 3.038,9.289l0,1.571l-27.45,0c-1.306,-2.777 -2.285,-6.251 -2.936,-10.42c-0.652,-4.17 -0.978,-8.361 -0.978,-12.572Zm3.592,-39.154l0.188,15.445l-15.198,0c-3.602,0 -6.723,0.404 -9.363,1.211c-2.639,0.807 -4.799,1.943 -6.481,3.408c-1.681,1.464 -2.925,3.172 -3.733,5.123c-0.807,1.952 -1.211,4.094 -1.211,6.427c0,2.31 0.541,4.391 1.624,6.242c1.084,1.852 2.629,3.303 4.634,4.353c2.007,1.049 4.359,1.574 7.057,1.574c4.106,0 7.658,-0.822 10.656,-2.467c2.998,-1.645 5.334,-3.655 7.008,-6.027c1.675,-2.374 2.543,-4.632 2.604,-6.774l7.126,11.517c-0.994,2.555 -2.347,5.221 -4.062,7.999c-1.713,2.778 -3.89,5.373 -6.53,7.784c-2.64,2.411 -5.824,4.384 -9.551,5.917c-3.727,1.533 -8.121,2.299 -13.182,2.299c-6.485,0 -12.342,-1.308 -17.568,-3.925c-5.226,-2.617 -9.364,-6.225 -12.414,-10.822c-3.05,-4.598 -4.575,-9.851 -4.575,-15.762c0,-5.339 0.994,-10.087 2.981,-14.243c1.987,-4.158 4.949,-7.667 8.884,-10.526c3.937,-2.86 8.86,-5.033 14.77,-6.521c5.91,-1.488 12.757,-2.233 20.54,-2.233l15.794,0Z" style="fill:#fff;fill-rule:nonzero;"/><path d="M1470.047,637.478l24.646,0l0,98.596c0,9.283 -2.056,17.172 -6.169,23.667c-4.113,6.495 -9.846,11.435 -17.202,14.819c-7.354,3.384 -15.911,5.076 -25.671,5.076c-4.242,0 -8.746,-0.571 -13.511,-1.714c-4.764,-1.142 -9.286,-2.9 -13.564,-5.273c-4.278,-2.373 -7.872,-5.397 -10.781,-9.071l11.952,-15.987c3.123,3.62 6.759,6.445 10.908,8.476c4.149,2.032 8.751,3.048 13.806,3.048c4.891,0 9.039,-0.888 12.442,-2.664c3.404,-1.775 6.019,-4.37 7.845,-7.784c1.826,-3.414 2.739,-7.562 2.739,-12.447l0,-75.16l2.561,-23.581Zm-68.555,52.183l0,-1.979c0,-7.748 0.948,-14.811 2.844,-21.188c1.897,-6.377 4.631,-11.87 8.203,-16.479c3.573,-4.608 7.905,-8.164 12.996,-10.666c5.091,-2.503 10.833,-3.755 17.224,-3.755c6.792,0 12.484,1.264 17.078,3.793c4.595,2.528 8.36,6.094 11.295,10.697c2.935,4.602 5.239,10.027 6.91,16.273c1.671,6.246 2.99,13.075 3.957,20.487l0,4.393c-0.946,7.093 -2.367,13.678 -4.26,19.754c-1.894,6.075 -4.384,11.388 -7.469,15.938c-3.085,4.55 -6.908,8.09 -11.469,10.619c-4.561,2.528 -9.971,3.792 -16.23,3.792c-6.308,0 -11.992,-1.288 -17.052,-3.864c-5.06,-2.576 -9.381,-6.189 -12.964,-10.839c-3.582,-4.65 -6.322,-10.121 -8.219,-16.414c-1.896,-6.294 -2.844,-13.148 -2.844,-20.562Zm27.144,-1.979l0,1.979c0,4.238 0.412,8.183 1.236,11.836c0.824,3.652 2.096,6.866 3.816,9.643c1.721,2.775 3.884,4.94 6.49,6.494c2.606,1.554 5.69,2.331 9.253,2.331c4.972,0 9.023,-1.055 12.154,-3.165c3.132,-2.11 5.483,-5.026 7.054,-8.749c1.571,-3.724 2.495,-7.984 2.771,-12.781l0,-12.369c-0.137,-3.924 -0.669,-7.483 -1.593,-10.677c-0.924,-3.194 -2.246,-5.924 -3.966,-8.192c-1.719,-2.268 -3.925,-4.017 -6.618,-5.248c-2.692,-1.231 -5.896,-1.847 -9.613,-1.847c-3.541,0 -6.63,0.787 -9.267,2.362c-2.636,1.575 -4.815,3.755 -6.536,6.541c-1.72,2.785 -3.013,6.041 -3.88,9.768c-0.866,3.726 -1.299,7.75 -1.299,12.073Z" style="fill:#fff;fill-rule:nonzero;"/><path d="M1562.697,741.339c-7.909,0 -15.004,-1.273 -21.285,-3.82c-6.281,-2.547 -11.608,-6.083 -15.98,-10.609c-4.371,-4.526 -7.709,-9.784 -10.015,-15.773c-2.305,-5.99 -3.458,-12.396 -3.458,-19.218l0,-3.702c0,-7.741 1.098,-14.821 3.293,-21.238c2.195,-6.418 5.355,-11.973 9.479,-16.667c4.124,-4.695 9.134,-8.321 15.028,-10.88c5.894,-2.559 12.531,-3.839 19.908,-3.839c7.246,0 13.663,1.193 19.249,3.578c5.586,2.386 10.278,5.772 14.075,10.158c3.797,4.385 6.672,9.642 8.625,15.769c1.953,6.127 2.929,12.942 2.929,20.446l0,11.272l-81.006,0l0,-18.063l54.374,0l0,-2.087c-0.038,-3.757 -0.731,-7.133 -2.078,-10.129c-1.346,-2.995 -3.364,-5.364 -6.054,-7.107c-2.689,-1.744 -6.124,-2.615 -10.305,-2.615c-3.618,0 -6.719,0.78 -9.304,2.339c-2.585,1.559 -4.678,3.749 -6.278,6.569c-1.6,2.82 -2.783,6.139 -3.549,9.958c-0.766,3.818 -1.149,7.997 -1.149,12.536l0,3.702c0,4.115 0.569,7.899 1.707,11.353c1.138,3.454 2.798,6.431 4.979,8.933c2.182,2.502 4.823,4.451 7.923,5.848c3.1,1.396 6.634,2.094 10.6,2.094c4.923,0 9.499,-0.959 13.729,-2.876c4.23,-1.917 7.884,-4.832 10.961,-8.743l13.174,14.327c-2.115,3.075 -5.007,6.035 -8.677,8.881c-3.669,2.845 -8.087,5.157 -13.254,6.936c-5.167,1.778 -11.048,2.667 -17.642,2.667Z" style="fill:#fff;fill-rule:nonzero;"/></g></svg>